<svg xmlns="http://www.w3.org/2000/svg" xmlns:ev="http://www.w3.org/2001/xml-events" xmlns:xlink="http://www.w3.org/1999/xlink" baseProfile="full" height="591" version="1.1" width="1004" viewBox="0 0 1004 591">
  <defs/>
  <polygon fill="currentColor" points="515,383 512,383 509,386 509,397 515,396 516,390 513,390 512,395 510,394 513,385 514,388 516,388"/>
  <polygon fill="currentColor" points="500,383 498,387 497,397 499,397 501,393 502,397 505,397 507,383 505,383 503,388 502,384"/>
  <polygon fill="currentColor" points="487,383 484,397 489,397 490,395 491,397 494,397 496,383 493,384 491,395 487,394 489,383"/>
  <polygon fill="currentColor" points="474,383 468,397 471,397 472,395 474,397 481,397 483,383 481,383 478,397 476,391 476,383"/>
  <polygon fill="currentColor" points="456,383 453,397 459,397 459,395 456,394 460,389 457,388 461,385 464,387 463,397 465,397 467,387 470,384 463,383 462,385 461,383"/>
  <polygon fill="currentColor" points="450,383 446,383 443,397 449,397 451,395 452,385"/>
  <polygon fill="currentColor" points="571,329 569,333 564,371 571,371 574,355 576,356 579,371 587,371 583,353 589,346 590,334 585,330"/>
  <polygon fill="currentColor" points="556,329 549,330 533,371 541,371 544,365 550,365 551,371 559,371 558,332"/>
  <polygon fill="currentColor" points="538,329 517,330 516,337 522,338 517,371 525,370 530,340 532,337 537,337"/>
  <polygon fill="currentColor" points="507,329 498,329 493,333 492,336 492,344 501,356 501,363 499,365 496,363 495,356 490,356 488,358 489,367 492,371 495,372 505,371 509,366 509,355 499,340 502,335 504,337 504,342 511,342 512,336"/>
  <polygon fill="currentColor" points="464,329 461,338 456,371 464,371 466,353 468,350 471,370 480,371 488,330 480,330 476,355 472,331 470,329"/>
  <polygon fill="currentColor" points="449,329 442,330 425,371 434,371 437,365 443,365 444,371 452,370 451,339"/>
  <polygon fill="currentColor" points="414,329 412,334 406,371 423,371 424,363 415,362 417,355 423,354 425,349 425,346 418,345 419,338 429,337 430,329"/>
  <polygon fill="currentColor" points="399,329 392,330 385,371 401,371 402,369 402,363 395,362 397,345 400,334"/>
  <polygon fill="currentColor" points="380,329 369,329 366,331 363,337 359,357 359,366 363,371 373,372 376,371 380,366 382,358 381,355 374,355 372,363 367,363 367,356 371,338 375,336 377,338 376,345 383,345 384,333"/>
  <polygon fill="currentColor" points="434,316 435,317 473,293 482,289 514,317 511,268 504,274 499,286 496,277 487,268 465,265"/>
  <polygon fill="currentColor" points="558,241 510,241 506,194 478,241 430,242 451,261 484,260 494,253 499,241 502,250 509,258 517,261 526,261"/>
</svg>
